<svg xmlns="http://www.w3.org/2000/svg" width="16" height="16" fill="none"><path fill="#F2994A" d="m3.597 8.977-.74 4.537a.44.44 0 0 0 .644.455l3.844-2.128 3.845 2.128a.443.443 0 0 0 .463-.026.439.439 0 0 0 .18-.428l-.74-4.538 3.128-3.21a.44.44 0 0 0-.247-.74L9.67 4.37 7.74.254c-.143-.307-.647-.307-.79 0L5.02 4.369l-4.303.659a.437.437 0 0 0-.248.739l3.128 3.21ZM5.383 5.2a.437.437 0 0 0 .33-.246L7.345 1.47l1.632 3.482a.436.436 0 0 0 .33.247L13 5.765l-2.686 2.757a.439.439 0 0 0-.119.377l.63 3.866-3.268-1.809a.44.44 0 0 0-.423 0l-3.268 1.809.63-3.866a.439.439 0 0 0-.12-.377L1.69 5.765 5.383 5.2Z"></path></svg>